<?xml version="1.0" encoding="UTF-8"?> <svg xmlns="http://www.w3.org/2000/svg" viewBox="0 0 350 295" width="350" height="295"><path fill="white" d="M309.3 156.1c-1.6-.8-3.4-1.2-5.2-1.4-12.7-1-61.2-2.5-80-.8-4.8.4-7.9 5.3-6.7 10.2 1.2 4 3.5 5.9 7 7l27.8 5.3c6.5 1.4 11.1 7.1 10.9 13.8.2 13.4-3.2 73.1-3.8 93.2-.1 2.9.6 7.7 4.6 9.4 4.6 1.8 10.7 2.1 13.7-1.8 2.4-3.1 2.8-9.3 3-13.4.5-13.7 4-75.9 4.7-88.8.1-1.2.2-2.3.5-3.4.7-3.2 2.1-5.6 4.6-7.4.9-.7 2.5-1.4 3.5-1.7 5.5-1.7 19.8-4.2 20.1-12.7-.2-3.5-2.1-6.1-4.7-7.5"></path><path fill="white" d="M78.7 1.9C77.5.6 75.7 0 73.9 0 55.7.2 25.7 5.4 24 5.6 7 8.9 2.7 24.6 1.6 33c-.2 1.8-.3 3.7-.4 5.5-.4 8.2-.5 17.9-.7 26 0 2.8-.3 32.7-.4 35.4 0 8.1-.4 15.7 0 24.4.1 1.5.2 3 .4 4.4v.2c.1.6.3 1.2.5 1.7 2.1 6.4 8.4 10.2 15.1 8.4 5.8-1.7 7.4-6.5 7.4-9 0-2.2-.1-4.4-.2-6.5-.3-5.3-.2-11.9-.8-18l-.9-11.8c-.1-1.1.1-2.2.6-3.1.7-1.4 2-2.4 3.5-2.8l7.7-2.2c1.8-.5 3.6-1.4 4.9-2.7 1.3-1.3 2.3-2.9 2.4-5.1.1-2.2-.1-4.4-.5-7 0-.3-.2-.9-.3-1.2l-.4-.9c-.1-.2-.3-.4-.4-.6-.2-.3-.6-.7-.9-.9-.7-.6-1.7-1.2-2.9-1.7-1.6-.5-6-2.1-7.4-2.8-1.1-.6-2.2-1.1-3.1-1.8-.3-.2-.5-.5-.8-.7-.2-.2-.5-.6-.6-.9l-.3-.6-.3-.9c-.6-2.2-.8-4.9-.8-7.8 0-2.9.3-6 .6-8.9.8-7 6.4-12.7 13.1-14.1l22.6-3.9C60 22.8 72.4 20.8 74 20c1.9-1 3.6-2.1 4.7-3.9 1.2-1.7 1.9-4.1 2.1-7.4.2-3.3-.8-5.4-2.1-6.8"></path><path fill="white" d="M156.5 253.2c-1.1 2.9-3 4.7-4.8 5.7-6.6 3.8-11.6-3.3-13.2-14.5-1.1-7.6-.8-14.2.1-19.6 2-11.6 8-16.3 15-12.8 6.6 3.9 8.7 26.4 2.9 41.2m18.1-53.6c-3.4-7.6-10.9-11.9-18.2-14.1h-.1c-3.6-1-7.3-1.3-11-1-2.6.4-7.6.7-12.9 3.7-7 4-10.1 12-12.2 18 0 0-7.9 27.8 0 61.2 2.3 9.6 7.8 17.9 15.5 22.9 2.1 1.4 3.7 2 5.3 2.6 3.4 1.3 7.3 1.5 11.2.8 8.5-1.6 17.4-10.3 21.7-20.6 11-26.5 6-61.5.7-73.5"></path><path fill="white" d="M70.6 176.3c1.6-2.3 4.2-3.5 7-3.6 3.5-.1 8.2 1.2 9.9 8.3.5 4.2 3.7 7.6 7.7 8.8 6.7 2 13.4-3.3 13.5-10.4.3-12.8-4.3-27.3-19-31.5-1-.3-1.9-.5-2.9-.7-10.5-2.1-21.6.1-30.5 6.4-5.2 3.7-9.4 8.9-11.1 16.4-.2 1.4-1.3 8.1.5 17.3 2.2 11.5 8.9 21.8 18.3 29.7 1.2 1 2.3 2 3.4 3 7.1 6.6 15 16.2 16 26.8.3 7-1.6 11.4-6.4 14.6-.7.4-1.6.8-2.7.9-10.4.7-12.9-9.7-14.6-17.8-1.1-5.3-8.3-5.9-12.6-4.1-6.1 2.6-7.2 7-7.1 13.6.4 24.4 15.4 33.5 23.1 36.6 1.5.5 3 1 4.5 1.4 2.4.6 4.9.8 7.5.8 15.2-.9 25.5-9.1 29.2-20.4.3-.9.6-1.8.8-2.6 10.3-36.2-16.1-63.1-24.9-70.8-3.4-2.7-8.9-9.5-10.1-12.7-1.2-2.9-1.7-6.8.5-10"></path><path fill="white" d="M321.6 36.7c-.8 5.2-3.4 8.9-5.6 11.2l-.9.9c-.6.5-1.3 1.1-2 1.6-.5.3-.7.5-.7.5-2 1.1-4.9 2.1-6.4 1-1-.7-1.2-2.1-1.3-2.9v-.1c0-.9.2-16.5.2-21.3V27c0-.6.1-1.2.2-1.8.4-2.3 1.8-3.4 3-3.8.8-.3 1.5-.4 2.3-.4.5 0 1 .1 1.5.1h.2c.3 0 .5.1.8.1 1.5.3 2.9.7 4.2 1.4.1 0 .1.1.2.1 1.3.8 2.3 1.8 3.1 3.2 1.3 2.2 2.1 5.4 1.2 10.8m27.1 80.7s-20-46.1-21.7-51c-.4-1.2-.5-2.2-.5-3 0 0-.3-.7.7-2.1.2-.4.5-.6.7-.8.4-.4.9-.9 1.5-1.4 3.6-2.9 13.4-10.6 13.1-26.4-.2-9.2-3.2-15.5-6.7-19.8-1-1.2-2-2.3-3.2-3.3-1.3-1.2-2.7-2.2-4.2-3.2-5.7-3.4-12.4-4.4-18-4.5h-2.5c-1.6 0-3.2.1-4.8.3-2.8.3-6.1.9-9.3 1.9-.5.1-.9.3-1.4.4-.4.3-.9.5-1.4.8-5.6 2.7-6 6.7-6 8.8 0 1.8 0 8-.1 17.6 0 6.4-5.7 8.6-8.8 11.9-.9 1-1.8 2.5-2 4.4-.1 6 3.2 7.2 6.9 12 2.8 3.6 3.1 8.2 3.2 10.3-.6 22.2-1.5 49.7-1.3 57.6.3 11.4 11.3 11.5 11.3 11.5s12.5 0 12.1-10.7c-.2-5.4-1.2-25.6-1.9-48.5.5-1.6 1.4-2.9 3.3-2.7 3.4.2 3.8 2.7 3.8 2.7s16.2 41.4 19.1 47.7c2.9 6.3 11 8 16.5 3.1 5.4-4.7 1.6-13.6 1.6-13.6"></path><path fill="white" d="M249.7 33.4c.7-3.9 3.8-6.9 7.7-7.5 3.3-.5 7.1-1 10.6-1.4 7.3-.8 12.5-7.7 11-14.9-.5-2.2-2.5-3.8-4.8-3.8-6.8.1-21.7.7-32 2.7-7 1.4-12.1 7.3-12.7 14.4-1.5 19.9-4.2 64.7-2.7 93 .6 10.7 8.7 19.4 19.3 20.8 2.9.4 7.7.6 12.3.7 7.6.2 14.1-5.8 14.1-13.5-.1-4.5-3.8-8.8-8.3-8.8h-9.6c-3.6 0-6.6-2.7-7-6.2-.2-1.9-.4-4-.5-6-.2-5 2.8-9.5 7.5-11.3 0 0 2.6-1 5.3-2.6 2.7-1.7 4.4-4.7 4.4-7.9 0-2.1-.1-4.2-.3-5.9v-.1c-.2-2-1.8-3.5-3.7-3.6-.8 0-1.6-.1-2.5-.2-1.7-.1-3.3-.2-5-.3-2.9-.1-5.2-2.5-5.3-5.4-.4-11.4 1.2-25.9 2.3-32.2h-.1z"></path><path fill="white" d="M216.8 85.4c-.4-6.9-4.6-10.3-8.1-12-2.7-1.3-10.2-1.5-14.8-1.3h-.7c-1 .1-1.9.1-2.4.2h-.2c-2.1.4-3.4 1.4-4.2 2.3-.3.4-.5.8-.8 1.3-1.3 2.5-2.7 7.5-1.5 12.3 1.2 4.8 6.2 3.9 9.8 4.6 3.6.6 4.4 2.3 4.5 5.3.1 3 .5 8.9-1.2 15.7-1.7 6.8-5.7 8.9-8.6 8.7-2.9-.2-7.4-.6-9.4-11.7-1.4-7.8-1.8-16.6-1.9-25.8-.4-7.7-.5-16.3-.2-24.6.2-11.4 1.1-23.1 2.7-26.7 2.3-4.9 9.6-6 12.2-1.5 2.6 4.5 1 14.1 1.4 20.4.1 1.2.3 2.1.6 3 .4.9 1.5 2.9 4.4 3.8h.1c.1 0 .2.1.3.1.3.1.8.2 1.5.3H200.6c1.6.2 3.7.3 5.8 0 7.5-.9 7.8-5.7 7.8-5.7.2-.8.2-1.7.2-2.8-.1-4.6-.2-9.2-.5-14.2-.2-5.1-.5-14.9-4.4-21.3-3.9-6.4-7.3-9.3-15.6-10.5-8.3-1.2-16.5.3-22.9 4.6-6.5 4.3-11.5 10.5-13.2 25.9-1.7 15.5-1.3 32.1-1.2 37 0 4.9.6 27.6.9 32.9.3 5.2 1.2 16.2 4.2 24.6 3 8.4 10.1 17.3 18.7 19.3 8.5 2 19.3.2 25.8-6s9.5-16 10.6-24.7c1.1-8.5.4-26.7 0-33.5"></path><path fill="white" d="M161.2 161c-2.2-3.2-8.6-5.6-12.6-15.7-4-10.2-4.3-21.5-4.8-29.6-.5-8.1-1.2-24.8-1.2-32.9-.1-8.2.1-33.9.2-40.4s.9-11.5-1.6-16.3c-2.5-4.9-8.1-6.2-12.3-6.6-1.2-.1-2.7-.1-4.3-.2-10.4-.2-10.5-3.6-15.5-8.4-2.8-2.7-6.6-3.1-9.3-2.9-7.7.8-12.4 4.9-12.7 10.9-.3 6.2-.2 44.9 0 59.6.2 14.7-.3 37.7-.4 46.6 0 5.9 2 9.1 4.5 10.6 0 0 2.3 1.8 8 1.4h.5c5-.5 6.9-3.4 7.6-5.3 1.2-4 1.2-9.7 1.2-13.4-.1-5.6-.5-57-.6-65-.1-8 2.7-10.6 5.7-11.3 3.1-.7 7.8.9 8.7 7.3s.2 30.2.2 35.9c0 5.7.3 26 .6 37.3.2 11.3 1.4 21.8 6.1 34.1 4.7 12.2 10.9 16.5 16 18.7 5.1 2.2 11.6.9 14.6-2.6 3.1-3.6 3.6-8.6 1.4-11.8"></path><path fill="white" d="M72.2 87.8c-.1-3.3-.4-9.7-.7-12.4-.3-3.5-2.6-6.6-5.9-7.7-3.1-1-6.2-1.1-6.2-1.1-2 0-3.9.5-5.5 1.8-2 1.6-3.3 3.9-3.5 6.5l-.4 4.3c-.3 4.9-.2 34.3-.2 39 0 3.6-.1 7.4.5 10.8.8 5 4.8 8.9 9.7 9.3.6.1 1.3.1 2.1.1 4 0 7.3-2.5 8.6-6.3.9-2.9 1.2-6 1.4-9.3.4-5.4.7-11.1.7-16.6 0-6.1-.3-12.3-.6-18.4"></path><path fill="white" d="M71.3 37.3c-.9-1.8-2.6-4.3-6.3-5.1-1.1-.2-2.3-.4-3.5-.4-3.8 0-7.1 1.2-8.6 3.2-1.2 1.6-2.5 3.5-3.2 5.7 0 0-1.6 4.2-.4 8 0 0 0 .1.1.2.3.8.6 1.5 1.2 2.2 1.1 1.7 3.1 3.9 6.2 5.3.2.1.3.1.5.2l.9.3c.3.1.7.2 1 .3.1 0 .2 0 .3.1 1 .2 2.1.4 3.3.4 1.3 0 2.7-.1 4.2-.4 1.4-.3 2.7-1.5 3.3-2.2 4.3-4.7 4.6-10.7 1-17.8"></path><path fill="white" d="M245.2 188.4c-.4-.2-1-.3-1.7-.4-3.5-.6-8.2-.7-13.1-.6-11.1 0-24 .6-24 .6-6.8-.5-12.7 4.4-13.6 11.1-.8 6.3-1 14.8-1.4 21.9-1.7 31.7-.7 44.8 0 62.9.2 5.1 4.5 9.2 9.8 9.3h.2c5.6.1 10.8-3.9 11.3-9.3.4-4.6.3-4.8 0-8.7-.4-3.2-.6-6.6-.8-10.2-.2-3.4 1.5-6.7 4.3-8.6 1-.7 2.3-1.2 3.5-1.4l9-1.5c4.7-.8 8.3-5 8-9.8v-.5c-.2-1.5-.8-3-1.9-4-.8-.7-1.9-1.4-3.6-1.8-1-.3-11.9-1.6-14.1-2.4-3-1.1-4.8-4-4.7-7.2.5-7.7.9-12.9.9-12.9.2-3.9 3.5-7.7 7.5-7.7 3.2-.2 21.5 1 24.8 0 1.4-.4 2.7-1.2 3.7-2.3 4-4.6 1.6-14.9-4.1-16.5"></path></svg> 